<svg xmlns="http://www.w3.org/2000/svg" viewBox="0 0 100 100">
  <g data-name="Layer 2">
    <path d="M97.13 47.13H88.7a38.66 38.66 0 00-9.32-22.45l6-6a2.87 2.87 0 00-4.06-4.06l-6 6a38.65 38.65 0 00-22.45-9.31V2.87a2.87 2.87 0 00-5.74 0v8.44a38.58 38.58 0 00-22.45 9.31l-6-6a2.87 2.87 0 10-4.06 4.06l6 6a38.65 38.65 0 00-9.31 22.45H2.87a2.87 2.87 0 000 5.74h8.44a38.65 38.65 0 009.31 22.45l-6 6a2.85 2.85 0 000 4.06 2.85 2.85 0 004.06 0l6-6a38.7 38.7 0 0022.45 9.31v8.44a2.87 2.87 0 005.74 0v-8.44a38.58 38.58 0 0022.45-9.31l6 6a2.87 2.87 0 004.06-4.06l-6-6a38.66 38.66 0 009.32-22.45h8.43a2.87 2.87 0 100-5.74zM50 83.07A33.07 33.07 0 1183.07 50 33.11 33.11 0 0150 83.07zm0-63.48A30.41 30.41 0 1080.41 50 30.44 30.44 0 0050 19.59zm2.87 5.92a24.46 24.46 0 0112.41 5.15L55.2 40.74a10.9 10.9 0 00-2.33-.89zm-5.74 0V40a11.09 11.09 0 00-2.18.93L34.72 30.66a24.53 24.53 0 0112.41-5.15zm-16.47 9.21L40.89 45a11.09 11.09 0 00-.89 2.13H25.51a24.53 24.53 0 015.15-12.41zm-5.15 18.15h14.34a10.9 10.9 0 00.89 2.33L30.66 65.28a24.53 24.53 0 01-5.15-12.41zm21.62 21.62a24.53 24.53 0 01-12.41-5.15l10-10a10.51 10.51 0 002.44 1.09zm-1.88-24.28a5 5 0 115 5 5 5 0 01-5-5zm7.62 24.28V60.57a10.71 10.71 0 002.6-1l9.81 9.81a24.46 24.46 0 01-12.41 5.11zm16.47-9.21l-9.81-9.81a10.32 10.32 0 001-2.6H74.5a24.6 24.6 0 01-5.16 12.41zm-8.88-18.15a10.51 10.51 0 00-1.09-2.44l10-10a24.6 24.6 0 015.13 12.44z" data-name="Layer 1"/>
  </g>
</svg>
