<svg xmlns="http://www.w3.org/2000/svg" version="1.1" x="0" y="0" viewBox="0 0 107 22" xml:space="preserve">
  <path d="M11.4 10.4c2.7 0 5-2.2 5-5 0-2.7-2.2-5-5-5-2.7 0-5 2.2-5 5 .1 2.8 2.3 5 5 5zM0 16.6c0-2.7 2.2-5 5-5 2.7 0 5 2.2 5 5 0 2.7-2.2 5-5 5s-5-2.3-5-5zm12.9 0c0-2.7 2.2-5 5-5 2.7 0 5 2.2 5 5 0 2.7-2.2 5-5 5s-5-2.3-5-5zM42 18.2c-1 0-1.6-.9-1.7-1.7-1 1.3-2.9 2-4.7 2-4.1 0-7.4-3.3-7.4-7.4 0-4.1 3.3-7.4 7.4-7.4 1.8 0 3.6.6 4.7 2V4.6c0-.2.2-.4.4-.4h1.9c.2 0 .4.2.4.4v13.1c0 .2-.2.4-.4.4H42zm-11.1-7.1c0 2.7 2.1 4.8 4.7 4.8s4.7-2.2 4.7-4.8c0-2.7-2.1-4.8-4.7-4.8s-4.7 2.2-4.7 4.8zm39.7 5.4c.1.7.7 1.7 1.7 1.7h.6c.2 0 .4-.2.4-.4V4.6c0-.2-.2-.4-.4-.4H71c-.2 0-.4.2-.4.4v1.1c-1.1-1.4-2.9-2-4.7-2-4.1 0-7.4 3.3-7.4 7.4 0 4.1 3.3 7.4 7.4 7.4 1.7 0 3.7-.7 4.7-2zm-4.8-.6c-2.6 0-4.7-2.2-4.7-4.8 0-2.7 2.1-4.8 4.7-4.8s4.7 2.2 4.7 4.8c0 2.7-2.1 4.8-4.7 4.8zm40.2 2.3c-1 0-1.6-.9-1.7-1.7-1 1.3-2.9 2-4.7 2-4.1 0-7.4-3.3-7.4-7.4 0-4.1 3.3-7.4 7.4-7.4 1.8 0 3.6.6 4.7 2V4.6c0-.2.2-.4.4-.4h1.9c.2 0 .4.2.4.4v13.1c0 .2-.2.4-.4.4h-.6zm-11.1-7.1c0 2.7 2.1 4.8 4.7 4.8s4.7-2.2 4.7-4.8c0-2.7-2.1-4.8-4.7-4.8s-4.7 2.2-4.7 4.8zm-5 5.9v-6.8c0-3.8-2.4-6.4-6.3-6.4-1.8 0-3.4 1.1-3.9 2-.1-.8-.5-1.5-1.7-1.5h-.6c-.2 0-.4.2-.4.4v13.2c0 .2.2.4.4.4h2.1l.1-.1c0-.1.1-.1.1-.2v-7.8c0-2.1 1.7-3.7 3.7-3.7 2.1 0 3.7 1.7 3.7 3.7V18c0 .2.2.4.4.4h2v-.1c0-.1.1-.1.1-.2l.3-1.1zm-38.5-1.1c-1.3 0-2.6-.4-3.9-1.3-.1-.1-.4-.2-.6.1l-1 1.5s-.2.3.1.6c1.5 1.1 3.3 1.7 5.4 1.7 2.8 0 5.3-1.7 5.3-4.3 0-3-2.7-3.8-5.2-4.5-1.4-.4-2.6-.7-2.6-1.8 0-.9.9-1.6 2.5-1.6 1.4 0 2.4.6 2.8.9h.1c.3.2.5 0 .6-.1l1-1.5s.2-.3-.1-.6c-1.1-.8-2.7-1.3-4.3-1.3C49 3.7 46.3 5 46.3 8c0 2 1.5 3.2 3.3 3.8.4.1.9.3 1.4.4 1.5.4 3.1.8 3.1 1.9-.2 1.2-1.5 1.8-2.7 1.8z"/>
</svg>
