<svg xmlns="http://www.w3.org/2000/svg" version="1.1" x="0" y="0" viewBox="0 0 100 32" xml:space="preserve">
  <path d="M52.4 8.3c0 1.1-.9 2-2 2s-2-.9-2-2 .9-2 2-2 2 .9 2 2zM44 12.4v.5s-1-1.2-3-1.2c-3.4 0-6 2.6-6 6.1 0 3.5 2.6 6.1 6 6.1 2.1 0 3-1.3 3-1.3v.5c0 .2.2.4.4.4H47V11.9h-2.5c-.3 0-.5.2-.5.5zm0 7.4c-.5.7-1.4 1.3-2.5 1.3-2 0-3.5-1.2-3.5-3.4 0-2.1 1.5-3.4 3.5-3.4 1.1 0 2.1.6 2.5 1.3v4.2zm4.8-7.9h3v11.7h-3V11.9zm44.5-.3c-2 0-3 1.2-3 1.2V6.3h-3v17.3h2.5c.2 0 .4-.2.4-.4v-.5s1 1.3 3 1.3c3.4 0 6-2.6 6-6.1.1-3.7-2.5-6.3-5.9-6.3zm-.5 9.5c-1.1 0-2-.6-2.5-1.3v-4.2c.5-.6 1.5-1.3 2.5-1.3 2 0 3.5 1.2 3.5 3.4s-1.5 3.4-3.5 3.4zm-7-4.4v7h-3V17c0-1.9-.6-2.7-2.3-2.7-.9 0-1.8.5-2.4 1.1v8.1h-3V11.9h2.4c.2 0 .4.2.4.4v.5c.9-.9 2-1.2 3.2-1.2 1.3 0 2.4.4 3.3 1.1 1 .9 1.4 2 1.4 4zm-17.9-5.1c-2 0-3 1.2-3 1.2V6.3h-3v17.3h2.5c.2 0 .4-.2.4-.4v-.5s1 1.3 3 1.3c3.4 0 6-2.6 6-6.1.1-3.7-2.5-6.3-5.9-6.3zm-.5 9.5c-1.1 0-2-.6-2.5-1.3v-4.2c.5-.6 1.5-1.3 2.5-1.3 2 0 3.5 1.2 3.5 3.4s-1.5 3.4-3.5 3.4zm-8.1-9.5c.9 0 1.4.2 1.4.2v2.8s-2.5-.8-4 .9v8.2h-3V11.9h2.5c.2 0 .4.2.4.4v.5c.6-.6 1.8-1.2 2.7-1.2zM28.4 22.5c-.2-.4-.3-.8-.5-1.1-.2-.6-.5-1.1-.7-1.6-2.1-4.7-4.4-9.4-6.9-14l-.1-.2c-.2-.5-.5-1-.7-1.5-.3-.6-.6-1.1-1.1-1.7-1-1.2-2.4-1.9-3.9-1.9-1.6 0-2.9.7-4 1.9-.5.5-.8 1.1-1.2 1.7-.2.5-.5 1-.7 1.5l-.1.1c-2.4 4.7-4.7 9.4-6.9 14v.1c-.2.5-.5 1-.7 1.6-.2.3-.3.7-.5 1.1-.4 1.1-.5 2.2-.4 3.4.3 2.3 1.9 4.3 4 5.2.8.3 1.6.5 2.5.5.2 0 .6 0 .8-.1 1-.1 2.1-.5 3.1-1.1 1.3-.7 2.5-1.7 3.8-3.2 1.4 1.5 2.6 2.5 3.8 3.2 1 .6 2.1.9 3.1 1.1.2 0 .6.1.8.1.9 0 1.7-.2 2.5-.5 2.2-.9 3.7-2.9 4-5.2.5-1.1.4-2.2 0-3.4zm-14 1.6c-1.7-2.1-2.8-4.1-3.1-5.8-.2-.7-.2-1.3-.1-1.9.1-.5.2-.9.5-1.3.6-.8 1.6-1.4 2.7-1.4s2.2.5 2.7 1.4c.2.4.4.8.5 1.3.1.6.1 1.2-.1 1.9-.3 1.7-1.4 3.7-3.1 5.8zm12.4 1.5c-.2 1.6-1.3 3-2.8 3.6-.7.3-1.6.4-2.4.3-.8-.1-1.6-.3-2.4-.8-1.1-.6-2.2-1.6-3.5-3 2-2.5 3.3-4.8 3.8-6.9.2-1 .2-1.8.2-2.6-.1-.8-.4-1.5-.8-2.1-1-1.4-2.6-2.2-4.4-2.2s-3.5.9-4.5 2.2c-.4.6-.7 1.3-.8 2.1-.1.8-.1 1.7.2 2.6.5 2 1.7 4.4 3.8 6.9-1.3 1.4-2.4 2.4-3.5 3-.8.5-1.6.7-2.4.8-.8.1-1.6 0-2.4-.3-1.5-.6-2.6-2-2.8-3.6-.1-.8 0-1.6.3-2.4.1-.3.2-.6.4-1 .2-.5.5-1 .7-1.6v-.1c2.1-4.6 4.4-9.3 6.8-13.9l.1-.2c.2-.5.5-1 .7-1.4.2-.5.5-1 .9-1.4.7-.7 1.5-1.1 2.5-1.1s1.8.4 2.5 1.1c.3.4.6.9.9 1.4.2.5.5 1 .7 1.4l.1.2c2.4 4.6 4.7 9.3 6.8 14 .2.5.5 1.1.7 1.6.2.4.3.7.4 1 .2.8.3 1.6.2 2.4z"/>
</svg>
