<svg xmlns="http://www.w3.org/2000/svg" version="1.1" x="0" y="0" viewBox="0 0 129 26" xml:space="preserve">
  <path d="M21.6 6.8c.9.1 1.6 1 1.8 1.9.2.9.1 2.1-.6 2.6-1.4 1-5.3-.2-5.5-1-.1-.6 2.6-3.7 4.3-3.5zm-.8-3.9C20.6 1.6 19.4.7 18.1.3c-1.3-.3-2.9-.2-3.6.9-1.4 2 .4 7.4 1.4 7.6 1 .3 5.2-3.5 4.9-5.9zm-2.8 13c.7-1.5-.5-4-2-5.5s-4-2.7-5.5-2C6.5 10.3-.4 24.5.8 25.6 2 26.8 16.1 19.9 18 15.9zm38.2-1.3l-1.3-.2c-1.2-.2-1.9-.6-1.9-1.3 0-.8.9-1.3 2.3-1.3.9 0 1.7.3 2.5.7l.1.1c.6.3 1.3.1 1.6-.5l.1-.2c.3-.6.1-1.3-.5-1.7-1.2-.6-2.5-1-3.8-1-3.2 0-5.3 1.5-5.3 4 0 2 1.5 3.3 4.3 3.7l1.3.2c1.3.2 2 .6 2 1.2s-.3 1.4-2.4 1.4c-1.1 0-2.3-.3-3.3-.9-.2-.1-.4-.2-.6-.2-.4 0-.8.2-1 .6l-.1.1c-.2.3-.2.6-.1 1 .1.3.3.6.6.7 1.4.8 3 1.2 4.6 1.3 3.4 0 5.4-1.5 5.4-4-.2-2.1-1.6-3.2-4.5-3.7zm38 4.1c.4 0 .7.1 1 .4l.1.1.1.1c.1.1 0 .1.1.1.4.6.3 1.5-.4 1.9-1.1.7-2.3 1-3.6 1-3.9 0-6.6-2.7-6.6-6.6s2.7-6.6 6.6-6.6c1.3 0 2.5.3 3.6 1 .1 0 .1.1.2.1.6.5.6 1.4 0 2l-.1.1c-.4.4-1.1.5-1.6.2-.6-.4-1.4-.6-2.1-.6-2 0-3.5 1.6-3.5 3.8s1.4 3.8 3.5 3.8c.8 0 1.5-.2 2.2-.7 0 0 .3-.1.5-.1zM32.5 4.8c-1 0-1.8.8-1.8 1.8s.7 1.8 1.7 1.8h.1c1 0 1.9-.7 1.9-1.7s-.7-1.9-1.7-1.9h-.2zM32 9.3h1.1c.5 0 .9.4.9.9V21c0 .5-.4.9-.9.9H32c-.5 0-.9-.4-.9-.9V10.3c0-.6.4-1 .9-1zm35.9 10.2c-1.4 0-2.6-1.1-2.6-2.6V12h2.6c.5 0 .9-.4.9-.9v-.9c0-.5-.4-.9-.9-.9h-2.6V6.5c0-.5-.4-.9-.9-.9h-1.1c-.5 0-.9.4-.9.9v10.3c-.1 3 2.3 5.5 5.3 5.6.6 0 1.2-.5 1.2-1.2v-.7c-.1-.6-.5-1-1-1zm-31.5-4.7c.1-3.2 2.7-5.6 5.9-5.6 3.1-.1 5.7 2.4 5.8 5.6v6.3c0 .5-.4.9-.9.9H46c-.5 0-.9-.4-.9-.9v-5.8c0-1.9-1.2-3.2-2.9-3.2s-2.9 1.3-2.9 3.2v5.8c0 .5-.4.9-.9.9h-1.1c-.5 0-.9-.4-.9-.9v-6.3zm83.2-5.4c-.6-.1-1.3-.1-2-.1h-.1c-3.1 0-5.6 2.5-5.6 5.6v6.2c0 .5.4.9.9.9h1.1c.5 0 .9-.4.9-.9V15c-.1-1.5 1.1-2.9 2.6-2.9h.2c.3 0 .6 0 .9.1h.3c.6 0 1.1-.4 1.3-1 0-.1.1-.3.1-.4 0-.1.1-.3.1-.4 0-.2 0-.5-.1-.7-.2-.2-.4-.3-.6-.3zm8.8 1.7c0 .5-.4.9-.9.9h-2.6v5c0 1.4 1.1 2.6 2.6 2.6.5 0 1 .4 1 .9v.7c0 .6-.5 1.2-1.2 1.2-3-.1-5.4-2.6-5.3-5.6V6.5c0-.5.4-.9.9-.9h1.1c.5 0 .9.4.9.9v2.8h2.6c.5 0 .9.4.9.9v.9zm-21.4-.9c-1.1-.7-2.3-1-3.6-1h-.1c-1.3 0-2.5.3-3.6 1-1.9 1.2-3 3.3-2.9 5.6 0 2.6 1.2 4.6 3.1 5.7 1 .6 2 .9 3.1.9 1.4 0 2.8-.6 3.8-1.7v.4c0 .5.4.9.9.9h1.1c.5 0 .9-.4.9-.9v-5.3c.2-2.2-.9-4.3-2.7-5.6zm-2.5 9.2c-.3.1-.7.2-1 .2h-.3c-.3 0-.7-.1-1-.2-1.4-.6-2.4-2-2.3-3.6 0-2 1.3-3.6 3.1-3.8h.7c1.8.2 3.1 1.7 3.1 3.8.1 1.6-.8 3-2.3 3.6zM76.6 9.2c1.3 0 2.5.3 3.6 1 1.9 1.2 3 3.3 2.9 5.6v5.3c0 .5-.4.9-.9.9h-1.1c-.5 0-.9-.4-.9-.9v-.4c-.9 1.1-2.3 1.7-3.8 1.7-1.1 0-2.2-.3-3.1-.9-1.9-1.1-3.1-3.2-3.1-5.7-.1-2.2 1-4.3 2.8-5.6 1.1-.7 2.3-1 3.6-1zm.2 10.4c.3 0 .7-.1 1-.2 1.4-.6 2.4-2 2.3-3.6 0-2-1.3-3.6-3.1-3.8h-.7c-1.8.2-3.1 1.7-3.1 3.8-.1 1.6.8 3 2.3 3.6.3.1.7.2 1 .2h.3z" fill-rule="evenodd" clip-rule="evenodd"/>
</svg>
